# xmcd
# 
# Track frame offsets:
#     183
#     14238
#     25098
#     33325
#     43660
#     55010
#     65720
#     75365
#     88625
#     99930
#     116350
#     124838
# 
# Disc length: 1864
# 
# Revision: 3
# Processed by: cddbd v1.5.2PL0 Copyright (c) Steve Scherf et al.
# Submitted via: fre:ac v1.0.17
# 
DISCID=9107460c
DTITLE=Françoise Hardy - Greatest Recordings
DYEAR=1995
DGENRE=Chanson
TTITLE0=Tous les garçons et les filles
TTITLE1=Le temps de l'amour
TTITLE2=Le premier bonheur du jour
TTITLE3=Mon amie la rose
TTITLE4=All Over the World
TTITLE5=L'amitié
TTITLE6=Ce petit coeur
TTITLE7=Je ne suis là pour personne
TTITLE8=ll est des choses
TTITLE9=La maison où j'ai grandi
TTITLE10=Comme
TTITLE11=Voilà
EXTD=
EXTT0=
EXTT1=
EXTT2=
EXTT3=
EXTT4=
EXTT5=
EXTT6=
EXTT7=
EXTT8=
EXTT9=
EXTT10=
EXTT11=
PLAYORDER=
